# Blender v3.0.0 OBJ File: ''
# www.blender.org
mtllib flag.mtl
o Cube.001_Cube.002
v 0.003189 6.417885 1.177421
v 0.003189 6.417885 0.948483
v 0.232127 6.417885 1.177421
v 0.232127 6.417885 0.948483
v 0.003189 5.896419 1.177421
v 0.003189 5.896419 0.948483
v 0.232127 5.896419 0.948483
v 0.232127 5.896419 1.177421
v 0.003189 4.279603 0.948483
v 0.232127 4.279603 0.948483
v 0.232127 4.279603 1.177421
v 0.003189 4.279603 1.177421
v -0.059842 5.807345 0.659864
v 0.169096 5.807345 0.659864
v -0.059842 4.190530 0.659864
v 0.169096 4.190530 0.659864
v -0.374998 5.896419 0.042159
v -0.146059 5.896419 0.042159
v -0.374998 4.279603 0.042159
v -0.146059 4.279603 0.042159
v -0.311967 6.035670 -0.714214
v -0.083028 6.035670 -0.714214
v -0.311967 4.512210 -0.714214
v -0.083028 4.512210 -0.714214
v -0.047236 6.035670 -1.647075
v 0.181702 6.035670 -1.647075
v -0.047236 4.512210 -1.647075
v 0.181702 4.512210 -1.647075
v -0.248936 5.896419 -2.592542
v -0.019997 5.896419 -2.592542
v -0.248936 4.279603 -2.592542
v -0.019997 4.279603 -2.592542
v 0.003189 -2.330959 1.177421
v 0.003189 -2.330959 0.948483
v 0.232127 -2.330959 0.948483
v 0.232127 -2.330959 1.177421
vt 0.610228 0.000000
vt 0.625000 0.000000
vt 0.625000 0.250000
vt 0.610228 0.250000
vt 0.625000 0.500000
vt 0.610228 0.500000
vt 0.625000 0.750000
vt 0.610228 0.750000
vt 0.625000 1.000000
vt 0.610228 1.000000
vt 0.875000 0.500000
vt 0.875000 0.750000
vt 0.564429 0.750000
vt 0.564429 1.000000
vt 0.564429 0.500000
vt 0.564429 0.250000
vt 0.610228 0.250000
vt 0.564429 0.250000
vt 0.564429 0.000000
vt 0.377170 0.000000
vt 0.377170 0.250000
vt 0.377170 0.500000
vt 0.377170 0.750000
vt 0.377170 1.000000
vt 0.610228 0.500000
vt 0.564429 0.500000
vt 0.564429 0.500000
vt 0.610228 0.500000
vt 0.564429 0.250000
vt 0.564429 0.250000
vt 0.564429 0.500000
vt 0.610228 0.250000
vt 0.610228 0.250000
vt 0.610228 0.250000
vt 0.564429 0.250000
vt 0.610228 0.500000
vt 0.610228 0.500000
vt 0.564429 0.500000
vt 0.564429 0.500000
vt 0.610228 0.500000
vt 0.564429 0.250000
vt 0.610228 0.250000
vn -1.0000 0.0000 0.0000
vn 0.0000 0.0000 -1.0000
vn 1.0000 0.0000 0.0000
vn 0.0000 0.0000 1.0000
vn 0.0000 1.0000 0.0000
vn -0.9770 0.0000 0.2134
vn 0.8908 0.0000 -0.4545
vn 0.0000 0.9555 -0.2949
vn 0.0000 -0.9555 0.2949
vn 0.9770 0.0000 -0.2134
vn 0.0000 -0.9558 -0.2939
vn 0.0000 0.9898 0.1427
vn 0.0000 -0.9898 -0.1427
vn -0.8908 0.0000 0.4545
vn -0.9620 0.0000 -0.2730
vn -0.9965 0.0000 -0.0830
vn 0.9965 0.0000 0.0830
vn 0.0000 0.9835 0.1811
vn 0.9780 0.0000 -0.2086
vn 0.9620 0.0000 0.2730
vn 0.0000 -1.0000 0.0000
vn 0.0000 0.9893 -0.1457
vn 0.0000 -0.9710 0.2389
vn -0.9780 0.0000 0.2086
usemtl Material.001
s off
f 5/1/1 1/2/1 2/3/1 6/4/1
f 6/4/2 2/3/2 4/5/2 7/6/2
f 7/6/3 4/5/3 3/7/3 8/8/3
f 8/8/4 3/7/4 1/9/4 5/10/4
f 4/5/5 2/11/5 1/12/5 3/7/5
f 11/13/4 8/8/4 5/10/4 12/14/4
f 10/15/3 7/6/3 8/8/3 11/13/3
f 9/16/6 6/4/6 13/17/6 15/18/6
f 12/19/1 5/1/1 6/4/1 9/16/1
f 33/20/1 12/19/1 9/16/1 34/21/1
f 34/21/2 9/16/2 10/15/2 35/22/2
f 35/22/3 10/15/3 11/13/3 36/23/3
f 36/23/4 11/13/4 12/14/4 33/24/4
f 14/25/7 16/26/7 20/27/7 18/28/7
f 6/4/8 7/6/8 14/25/8 13/17/8
f 10/15/9 9/16/9 15/18/9 16/26/9
f 7/6/10 10/15/10 16/26/10 14/25/10
f 20/27/11 19/29/11 23/30/11 24/31/11
f 13/17/12 14/25/12 18/28/12 17/32/12
f 16/26/13 15/18/13 19/29/13 20/27/13
f 15/18/14 13/17/14 17/32/14 19/29/14
f 23/30/15 21/33/15 25/34/15 27/35/15
f 19/29/16 17/32/16 21/33/16 23/30/16
f 18/28/17 20/27/17 24/31/17 22/36/17
f 17/32/18 18/28/18 22/36/18 21/33/18
f 26/37/19 28/38/19 32/39/19 30/40/19
f 22/36/20 24/31/20 28/38/20 26/37/20
f 21/33/5 22/36/5 26/37/5 25/34/5
f 24/31/21 23/30/21 27/35/21 28/38/21
f 31/41/2 29/42/2 30/40/2 32/39/2
f 25/34/22 26/37/22 30/40/22 29/42/22
f 28/38/23 27/35/23 31/41/23 32/39/23
f 27/35/24 25/34/24 29/42/24 31/41/24
f 36/23/21 33/20/21 34/21/21 35/22/21
